<?xml version="1.0" standalone="no"?><!DOCTYPE svg PUBLIC "-//W3C//DTD SVG 1.1//EN" "http://www.w3.org/Graphics/SVG/1.1/DTD/svg11.dtd"><svg t="1778989987783" class="icon" viewBox="0 0 1024 1024" version="1.1" xmlns="http://www.w3.org/2000/svg" p-id="5866" xmlns:xlink="http://www.w3.org/1999/xlink" width="200" height="200"><path d="M928 544 544 544 544 928C544 945.68 529.68 960 512 960L512 960C494.32 960 480 945.68 480 928L480 544 96 544C78.32 544 64 529.68 64 512L64 512C64 494.32 78.32 480 96 480L480 480 480 96C480 78.32 494.32 64 512 64L512 64C529.68 64 544 78.32 544 96L544 480 928 480C945.68 480 960 494.32 960 512L960 512C960 529.68 945.68 544 928 544Z" p-id="5867"></path></svg>