<?xml version="1.0" standalone="no"?><!DOCTYPE svg PUBLIC "-//W3C//DTD SVG 1.1//EN" "http://www.w3.org/Graphics/SVG/1.1/DTD/svg11.dtd"><svg t="1779115967066" class="icon" viewBox="0 0 1024 1024" version="1.1" xmlns="http://www.w3.org/2000/svg" p-id="1312" xmlns:xlink="http://www.w3.org/1999/xlink" width="200" height="200"><path d="M819.2 25.6a153.6 153.6 0 0 1 153.6 153.6v662.8864a153.6 153.6 0 0 1-153.6 153.6H204.8a153.6 153.6 0 0 1-153.6-153.6V179.2a153.6 153.6 0 0 1 153.6-153.6h614.4z m0.512 81.92v240.64a92.16 92.16 0 0 1-84.5824 91.8528l-7.5264 0.3072H296.3968a92.16 92.16 0 0 1-91.8528-84.5824L204.288 348.16V107.52l-6.3488 0.3072a71.68 71.68 0 0 0-64.4608 64.512L133.12 179.2v662.8864a71.68 71.68 0 0 0 64.768 71.3728l6.912 0.3072h614.4a71.68 71.68 0 0 0 71.3728-64.768l0.3072-6.912V179.2a71.68 71.68 0 0 0-64.768-71.3728L819.712 107.52z m-81.92 0H286.1568v240.64a10.24 10.24 0 0 0 7.5264 9.8816l2.7136 0.3584h431.2064a10.24 10.24 0 0 0 9.8304-7.5264l0.4096-2.7136-0.0512-240.64z m-81.6128 69.3248a25.6 25.6 0 0 1 25.6 25.6V259.584a25.6 25.6 0 0 1-25.6 25.6H544.7168a25.6 25.6 0 0 1-25.6-25.6V202.4448a25.6 25.6 0 0 1 25.6-25.6h111.4624z" fill="#515151" p-id="1313"></path></svg>