<?xml version="1.0" standalone="no"?><!DOCTYPE svg PUBLIC "-//W3C//DTD SVG 1.1//EN" "http://www.w3.org/Graphics/SVG/1.1/DTD/svg11.dtd"><svg t="1778990187353" class="icon" viewBox="0 0 1024 1024" version="1.1" xmlns="http://www.w3.org/2000/svg" p-id="2757" xmlns:xlink="http://www.w3.org/1999/xlink" width="200" height="200"><path d="M786.4 871.2H236.8c-46.4 0-84.8-38.4-84.8-84.8V236.8C152 190.4 190.4 152 236.8 152h549.6c46.4 0 84.8 38.4 84.8 84.8v549.6c0 46.4-38.4 84.8-84.8 84.8zM236.8 200c-20 0-36.8 16.8-36.8 36.8v549.6c0 20 16.8 36.8 36.8 36.8h549.6c20 0 36.8-16.8 36.8-36.8V236.8c0-20-16.8-36.8-36.8-36.8H236.8z" fill="#999999" p-id="2758"></path><path d="M645.6 407.2H378.4c-49.6 0-90.4-40.8-90.4-90.4V183.2h48v133.6c0 23.2 19.2 42.4 42.4 42.4h267.2c23.2 0 42.4-19.2 42.4-42.4V183.2h48v133.6c0 49.6-40.8 90.4-90.4 90.4z" fill="#999999" p-id="2759"></path><path d="M627.2 316.8c-13.6 0-24-10.4-24-24V180c0-13.6 10.4-24 24-24s24 10.4 24 24v112.8c0 13.6-10.4 24-24 24zM688 601.6H336c-13.6 0-24-10.4-24-24s10.4-24 24-24h352c13.6 0 24 10.4 24 24s-10.4 24-24 24zM688 735.2H336c-13.6 0-24-10.4-24-24s10.4-24 24-24h352c13.6 0 24 10.4 24 24s-10.4 24-24 24z" fill="#999999" p-id="2760"></path></svg>