<?xml version="1.0" standalone="no"?><!DOCTYPE svg PUBLIC "-//W3C//DTD SVG 1.1//EN" "http://www.w3.org/Graphics/SVG/1.1/DTD/svg11.dtd"><svg t="1779115980449" class="icon" viewBox="0 0 1024 1024" version="1.1" xmlns="http://www.w3.org/2000/svg" p-id="1519" xmlns:xlink="http://www.w3.org/1999/xlink" width="200" height="200"><path d="M827.2896 12.8c97.792 0 178.3808 73.472 183.6544 166.912l0.256 9.728v266.24a38.4 38.4 0 0 1-76.4416 5.2224L934.4 455.68V189.44c0-52.224-43.3152-95.744-99.072-99.584l-8.0384-0.256h-20.8896V256a89.6 89.6 0 0 1-82.2272 89.2928L716.8 345.6H307.2a89.6 89.6 0 0 1-89.2928-82.2272L217.6 256V89.6h-20.8896c-56.832 0-102.7584 41.1648-106.8032 92.4672L89.6 189.44v645.12c0 52.224 43.3152 95.744 99.072 99.584l8.0384 0.256h485.0688a38.4 38.4 0 0 1 5.2224 76.4416l-5.2224 0.3584H196.7104c-97.792 0-178.3808-73.472-183.6544-166.912L12.8 834.56V189.44C12.8 94.72 90.112 18.0736 186.6752 13.056L196.7104 12.8h630.5792z m69.2224 573.44l3.8912 4.1472 102.4 128a38.4 38.4 0 0 1 3.328 43.1104l-3.328 4.9152-102.4 128a38.4 38.4 0 0 1-63.232-43.3152l3.2256-4.7104 52.4288-65.5872H512a38.4 38.4 0 0 1-5.2224-76.4416L512 704h380.8768l-52.48-65.5872a38.4 38.4 0 0 1 1.8432-50.176l4.1472-3.84a38.4 38.4 0 0 1 50.176 1.8432z m-166.912-496.64h-435.2V256a12.8 12.8 0 0 0 9.8816 12.4416L307.2 268.8h409.6a12.8 12.8 0 0 0 12.4416-9.8816L729.6 256V89.6z" fill="#333333" p-id="1520"></path></svg>